<svg width="182" height="30" viewBox="0 0 182 30" fill="none" xmlns="http://www.w3.org/2000/svg">
<path d="M52.1188 18.1672C53.597 18.1672 54.812 18.846 55.56 19.9462L57.2241 18.8361C56.2565 17.2333 54.3113 16.2577 52.1188 16.2577C48.3334 16.2577 45.666 18.9607 45.666 22.6492C45.666 26.3377 48.3334 29.0407 52.1188 29.0407C54.2836 29.0407 56.1239 28.0909 57.1707 26.5494L55.5501 25.3601C54.7764 26.4782 53.5871 27.1292 52.1169 27.1292C49.6078 27.1292 47.7517 25.3067 47.7517 22.6492C47.7517 19.9917 49.6097 18.1692 52.1169 18.1692L52.1188 18.1672Z" fill="white"/>
<path d="M111.963 16.2577C108.177 16.2577 105.51 18.9607 105.51 22.6492C105.51 26.3377 108.177 29.0407 111.963 29.0407C115.748 29.0407 118.415 26.3377 118.415 22.6492C118.415 18.9607 115.748 16.2577 111.963 16.2577ZM111.963 27.1292C109.453 27.1292 107.597 25.3067 107.597 22.6492C107.597 19.9917 109.455 18.1692 111.963 18.1692C114.47 18.1692 116.328 19.9917 116.328 22.6492C116.328 25.3067 114.47 27.1292 111.963 27.1292Z" fill="white"/>
<path d="M30.5669 21.8379H23.8272V16.5288H21.793V29.1832H23.8272V23.8741H30.5669V29.1832H32.6031V16.5288H30.5669V21.8379Z" fill="white"/>
<path d="M121.353 16.5288H119.318V29.1832H121.353V16.5288Z" fill="white"/>
<path d="M121.354 16.5288L126.059 29.1832H128.093L123.388 16.5288H121.354Z" fill="white"/>
<path d="M130.128 16.5288H128.094V29.1832H130.128V16.5288Z" fill="white"/>
<path d="M62.6607 22.857L68.4684 16.5288H66.0761L60.4365 22.671V16.5288H58.4023V29.1832H60.4365V22.857L66.2463 29.1832H68.6386L62.8289 22.857H62.6607Z" fill="white"/>
<path d="M33.3164 29.1832H35.3526L36.7991 25.0673H41.8687L41.1544 23.0311H37.5154L39.8029 16.5288H37.7687L33.3164 29.1832Z" fill="white"/>
<path d="M39.8027 16.5288L44.255 29.1832H46.2892L41.8369 16.5288H39.8027Z" fill="white"/>
<path d="M0 29.1832H2.03419L3.48267 25.0673H8.55034L7.83798 23.0311H4.19899L6.48646 16.5288H4.45029L0 29.1832Z" fill="white"/>
<path d="M6.48645 16.5288L10.9367 29.1832H12.9709L8.52064 16.5288H6.48645Z" fill="white"/>
<path d="M95.0674 16.5288H93.0312V29.1832H95.0674V23.8741H100.958V21.8379H95.0674V16.5288Z" fill="white"/>
<path d="M103.841 16.5288H101.807V29.1832H103.841V16.5288Z" fill="white"/>
<path d="M15.958 16.5288H13.9238V29.1832H15.958V16.5288Z" fill="white"/>
<path d="M85.0045 16.5288H80.4434V18.565H85.0045V29.1832H87.0387V18.565H91.5998V16.5288H87.0387H85.0045Z" fill="white"/>
<path d="M75.1251 16.5288L77.4126 23.0311H72.8377L75.1251 16.5288H73.089L68.6387 29.1832H70.6729L72.1213 25.0673H78.127L79.5754 29.1832H81.6096L77.1593 16.5288H75.1251Z" fill="white"/>
<path d="M10.5188 12.1746H7.94071L2.46098 3.09668H2.39669C2.41812 3.58315 2.44169 4.10391 2.46955 4.66109C2.49741 5.21828 2.52098 5.77761 2.54241 6.33909V12.1746H0.677979V0.600052H3.2389L8.70148 9.61363H8.75077C8.74006 9.18074 8.72077 8.68356 8.69505 8.12209C8.66719 7.56061 8.64791 7.01414 8.63933 6.48481V0.600052H10.5188V12.1746Z" fill="white"/>
<path d="M20.3593 12.1746L19.3049 9.11003H14.9438L13.9066 12.1746H11.7014L15.9489 0.550766H18.3148L22.5623 12.1724H20.3571L20.3593 12.1746ZM18.7713 7.32703L17.7662 4.34393C17.7233 4.20463 17.659 4.00104 17.5712 3.73531C17.4855 3.46957 17.404 3.19955 17.329 2.92524C17.254 2.64879 17.1876 2.41949 17.134 2.23733C17.0804 2.46449 17.0118 2.71737 16.9304 3.00025C16.849 3.28099 16.774 3.54672 16.7032 3.79531C16.6325 4.0439 16.5768 4.2282 16.5339 4.34607L15.5117 7.32917H18.7691L18.7713 7.32703Z" fill="white"/>
<path d="M31.8363 0.600059L27.8332 12.1746H25.613L21.6077 0.600059H23.7314L26.0652 7.68491C26.1295 7.87993 26.2045 8.13066 26.2923 8.43926C26.3781 8.74786 26.4616 9.06288 26.5431 9.38648C26.6245 9.71008 26.6866 9.99081 26.7295 10.2287C26.7724 9.99081 26.8324 9.71222 26.9074 9.39291C26.9824 9.0736 27.0638 8.76071 27.1495 8.45212C27.2353 8.14352 27.3124 7.8885 27.3767 7.68277L29.7105 0.597916H31.8342L31.8363 0.600059Z" fill="white"/>
<path d="M39.5991 12.1746H33.0178V0.600052H39.5991V2.33376H35.0923V5.28471H39.3076V7.01843H35.0923V10.4216H39.5991V12.1724V12.1746Z" fill="white"/>
<path d="M45.0298 0.600052C46.5535 0.600052 47.6808 0.880789 48.4094 1.44226C49.138 2.00374 49.5045 2.8588 49.5045 4.00318C49.5045 4.56466 49.3995 5.04684 49.1895 5.44544C48.9794 5.84619 48.703 6.17836 48.3622 6.44195C48.0215 6.70769 47.6615 6.91985 47.2843 7.08272L50.6081 12.1724H48.2744L45.5034 7.60133H43.8169V12.1724H41.7424V0.600052H45.0341H45.0298ZM44.9013 2.33376H43.8147V5.89976H44.9656C45.8292 5.89976 46.4507 5.74547 46.83 5.43687C47.2072 5.12827 47.3979 4.67181 47.3979 4.06747C47.3979 3.46314 47.1943 2.99596 46.7893 2.73022C46.3842 2.46449 45.7542 2.33376 44.9013 2.33376Z" fill="white"/>
<path d="M64.5 0.600043L60.4968 12.1745H58.2766L54.2734 0.600043H56.3972L58.7309 7.6849C58.7952 7.87991 58.8702 8.13065 58.9581 8.43925C59.0438 8.74784 59.1274 9.06287 59.2088 9.38646C59.2903 9.71006 59.3524 9.9908 59.3953 10.2287C59.4381 9.9908 59.4981 9.7122 59.5732 9.39289C59.6482 9.07358 59.7296 8.7607 59.8153 8.4521C59.901 8.14351 59.9782 7.88849 60.0425 7.68276L62.3762 0.5979H64.5V0.600043Z" fill="white"/>
<path d="M66.5106 0C66.8128 0 67.0785 0.0792921 67.3057 0.235733C67.5328 0.392174 67.6464 0.670768 67.6464 1.07151C67.6464 1.47226 67.5328 1.753 67.3057 1.91373C67.0785 2.0766 66.8128 2.15589 66.5106 2.15589C66.2085 2.15589 65.9299 2.07445 65.7091 1.91373C65.4884 1.75086 65.377 1.47012 65.377 1.07151C65.377 0.672911 65.4884 0.394317 65.7091 0.235733C65.9299 0.0792921 66.1977 0 66.5106 0ZM67.5307 3.38813V12.1746H65.4884V3.38813H67.5307Z" fill="white"/>
<path d="M73.3513 3.22526C74.53 3.22526 75.4622 3.57671 76.148 4.27963C76.8337 4.98254 77.1766 5.95976 77.1766 7.21343V8.25066H71.3733C71.3947 9.05001 71.6154 9.66935 72.0376 10.1065C72.4598 10.5437 73.0427 10.7623 73.7885 10.7623C74.35 10.7623 74.8578 10.7066 75.3122 10.593C75.7665 10.4794 76.2315 10.3144 76.7073 10.098V11.7352C76.2744 11.941 75.8265 12.091 75.3615 12.1895C74.8964 12.286 74.3392 12.3353 73.692 12.3353C72.8284 12.3353 72.0655 12.1703 71.4054 11.8402C70.7454 11.5102 70.231 11.013 69.8582 10.3487C69.4853 9.68435 69.2988 8.84857 69.2988 7.84349C69.2988 6.34122 69.6696 5.19684 70.4089 4.40607C71.1483 3.61743 72.1298 3.22311 73.3513 3.22311V3.22526ZM73.3513 4.73395C72.8005 4.73395 72.3548 4.90968 72.014 5.26113C71.6733 5.61259 71.4761 6.13335 71.4226 6.82555H75.1986C75.1879 6.22121 75.0336 5.71974 74.7357 5.32543C74.4378 4.93111 73.9771 4.73395 73.3492 4.73395H73.3513Z" fill="white"/>
<path d="M82.315 10.698C82.5636 10.698 82.81 10.6744 83.0522 10.6251C83.2943 10.5758 83.5193 10.5201 83.7251 10.4558V11.9795C83.5086 12.0867 83.2279 12.1745 82.8829 12.2388C82.5378 12.3031 82.1757 12.3353 81.7963 12.3353C81.2884 12.3353 80.832 12.2538 80.427 12.0931C80.0219 11.9324 79.7005 11.6452 79.4626 11.2338C79.2247 10.8223 79.1068 10.2458 79.1068 9.50004V4.92896H77.9239V4.03746L79.2204 3.32383L79.8698 1.4594H81.1513V3.38812H83.6479V4.92896H81.1513V9.48504C81.1513 9.8965 81.2627 10.2008 81.4835 10.4001C81.7042 10.5994 81.9828 10.7001 82.3192 10.7001L82.315 10.698Z" fill="white"/>
<path d="M89.8698 3.22527C90.8534 3.22527 91.6228 3.48029 92.18 3.98818C92.7372 4.49608 93.0157 5.31686 93.0157 6.45267V12.1746H90.9734V6.8577C90.9734 6.19765 90.8427 5.70475 90.5834 5.37472C90.3241 5.0447 89.9126 4.87968 89.3512 4.87968C88.5304 4.87968 87.9668 5.13899 87.6646 5.6576C87.3624 6.17622 87.2103 6.91771 87.2103 7.87778V12.1746H85.168V3.38814H86.741L87.0324 4.53894H87.146C87.4267 4.08462 87.8125 3.75245 88.3054 3.54243C88.7961 3.33242 89.319 3.22527 89.8698 3.22527Z" fill="white"/>
<path d="M98.752 3.22527C99.8857 3.22527 100.749 3.47386 101.336 3.97104C101.926 4.46822 102.219 5.23543 102.219 6.27265V12.1724H100.777L100.372 10.9573H100.308C99.9285 11.4331 99.5299 11.7824 99.1077 12.0031C98.6856 12.2238 98.1134 12.3353 97.389 12.3353C96.6004 12.3353 95.9468 12.1146 95.4282 11.6709C94.9095 11.2273 94.6502 10.5416 94.6502 9.61149C94.6502 8.68142 94.9824 8.02351 95.6467 7.56919C96.3111 7.11486 97.3183 6.86199 98.6706 6.80627L100.194 6.75698V6.3198C100.194 5.75833 100.059 5.35758 99.7892 5.1197C99.5192 4.88183 99.1399 4.76396 98.6556 4.76396C98.212 4.76396 97.7876 4.82611 97.3826 4.9504C96.9776 5.0747 96.5747 5.229 96.1739 5.4133L95.5246 3.98604C95.9575 3.75888 96.4504 3.57458 97.0076 3.43528C97.5648 3.29599 98.1455 3.22527 98.7499 3.22527H98.752ZM100.194 8.02351L99.1249 8.05565C98.227 8.0878 97.6055 8.2421 97.2604 8.51855C96.9154 8.795 96.7418 9.1636 96.7418 9.62864C96.7418 10.0508 96.864 10.3508 97.1062 10.5287C97.3483 10.7066 97.6698 10.7966 98.0705 10.7966C98.6641 10.7966 99.1677 10.6273 99.5771 10.2865C99.9885 9.94581 100.192 9.44005 100.192 8.77143V8.02565L100.194 8.02351Z" fill="white"/>
<path d="M114.525 3.22527C115.519 3.22527 116.267 3.48029 116.771 3.98818C117.272 4.49608 117.525 5.31686 117.525 6.45267V12.1746H115.483V6.84056C115.483 5.53331 114.985 4.87968 113.991 4.87968C113.277 4.87968 112.77 5.11327 112.467 5.57617C112.165 6.04121 112.013 6.71626 112.013 7.60348V12.1746H109.971V6.84056C109.971 5.53331 109.469 4.87968 108.464 4.87968C107.718 4.87968 107.204 5.13899 106.923 5.6576C106.643 6.17622 106.501 6.91771 106.501 7.87778V12.1746H104.459V3.38814H106.032L106.323 4.53894H106.437C106.707 4.08462 107.073 3.75245 107.538 3.54243C108.003 3.33242 108.49 3.22527 108.998 3.22527C109.658 3.22527 110.211 3.33242 110.659 3.54886C111.107 3.76531 111.449 4.11034 111.687 4.58609H111.85C112.12 4.11034 112.5 3.76531 112.984 3.54886C113.47 3.33242 113.983 3.22527 114.525 3.22527Z" fill="white"/>
<g clip-path="url(#clip0_1_66)">
<path d="M153.963 16.2577C150.177 16.2577 147.51 18.9607 147.51 22.6492C147.51 26.3377 150.177 29.0407 153.963 29.0407C157.748 29.0407 160.415 26.3377 160.415 22.6492C160.415 18.9607 157.748 16.2577 153.963 16.2577ZM153.963 27.1292C151.453 27.1292 149.597 25.3067 149.597 22.6492C149.597 19.9917 151.455 18.1692 153.963 18.1692C156.47 18.1692 158.328 19.9917 158.328 22.6492C158.328 25.3067 156.47 27.1292 153.963 27.1292Z" fill="white"/>
<path d="M172.002 25.425H174.327C174.401 26.44 175.416 27.1678 176.669 27.1763C178.151 27.1678 179.223 26.1527 179.214 24.7653C179.223 23.3246 178.124 22.3117 176.595 22.3032C175.56 22.2947 174.81 22.6415 174.399 23.3778H172.184L172.99 16.266H180.826V18.1557H174.949L174.547 21.486H174.675C175.187 20.9391 176.148 20.5412 177.237 20.5327C179.699 20.5412 181.529 22.2755 181.52 24.695C181.529 27.2018 179.535 28.9979 176.669 28.9979C174.024 28.9979 172.074 27.4976 172 25.425H172.002Z" fill="white"/>
<path d="M140.277 26.9358L140.369 26.8507L142.731 24.6291C145.341 22.2968 146.053 21.1519 146.062 19.7368C146.053 17.6279 144.232 16.0936 141.521 16.0936C138.81 16.0936 136.991 17.6364 137 20.0134H139.271C139.262 18.7387 140.14 17.9322 141.503 17.9322C142.794 17.9322 143.773 18.6685 143.773 19.841C143.773 20.8987 143.077 21.6456 141.741 22.9118L137.054 27.1954V28.8255H146.262V26.9358H140.277Z" fill="white"/>
<path d="M164.774 26.9358L164.867 26.8507L167.229 24.6291C169.839 22.2968 170.551 21.1519 170.56 19.7368C170.551 17.63 168.729 16.0936 166.021 16.0936C163.312 16.0936 161.491 17.6364 161.5 20.0134H163.771C163.762 18.7387 164.64 17.9322 166.003 17.9322C167.294 17.9322 168.274 18.6685 168.274 19.841C168.274 20.8987 167.577 21.6456 166.241 22.9118L161.554 27.1954V28.8255H170.762V26.9358H164.774Z" fill="white"/>
</g>
<defs>
<clipPath id="clip0_1_66">
<rect width="45" height="13" fill="white" transform="translate(137 16)"/>
</clipPath>
</defs>
</svg>
